<svg width="19" height="11" viewBox="0 0 19 11" fill="none" xmlns="http://www.w3.org/2000/svg">
<path d="M0.388576 2.26728L8.84162 10.6391C8.94225 10.7384 9.05103 10.8087 9.16796 10.85C9.28489 10.8913 9.41002 10.9111 9.54335 10.9096C9.67668 10.9088 9.80154 10.887 9.91794 10.8443C10.0343 10.8015 10.1422 10.7302 10.2416 10.6302L18.6132 2.15216C18.8451 1.91736 18.9599 1.62496 18.9577 1.27497C18.9555 0.924975 18.8286 0.625771 18.577 0.377355C18.3254 0.128939 18.033 0.00578346 17.6997 0.0078889C17.3663 0.00999435 17.0755 0.136834 16.827 0.388408L9.52361 7.78469L2.12733 0.481258C1.89253 0.249403 1.60413 0.134556 1.26214 0.136716C0.920144 0.138876 0.625272 0.265741 0.377522 0.517311C0.129106 0.768885 0.00595116 1.06134 0.00805661 1.39466C0.0101621 1.72799 0.137002 2.01886 0.388576 2.26728Z" fill="#F20202"/>
</svg>
