<svg width="20" height="11" viewBox="0 0 20 11" fill="none" xmlns="http://www.w3.org/2000/svg">
<path d="M18.6296 8.70221L10.1765 0.330431C10.0759 0.231065 9.96713 0.160751 9.8502 0.119488C9.73327 0.0782262 9.60814 0.0583495 9.47481 0.0598583C9.34148 0.0607005 9.21662 0.0824896 9.10022 0.125226C8.98382 0.167962 8.87593 0.239311 8.77656 0.339274L0.404945 8.81732C0.17309 9.05212 0.0582683 9.34452 0.060479 9.69451C0.0626897 10.0445 0.189582 10.3437 0.441156 10.5921C0.69273 10.8405 0.985181 10.9637 1.31851 10.9616C1.65183 10.9595 1.94271 10.8326 2.19112 10.5811L9.49455 3.1848L16.8908 10.4882C17.1256 10.7201 17.414 10.8349 17.756 10.8328C18.098 10.8306 18.3929 10.7037 18.6406 10.4522C18.8891 10.2006 19.0122 9.90815 19.0101 9.57482C19.008 9.24149 18.8812 8.95062 18.6296 8.70221Z" fill="#999999"/>
</svg>
