<svg width="11" height="19" viewBox="0 0 11 19" fill="none" xmlns="http://www.w3.org/2000/svg">
<path d="M2.15296 18.5918L10.6458 10.2604C10.7466 10.1612 10.8184 10.0534 10.8614 9.93711C10.9043 9.82079 10.926 9.69596 10.9264 9.56263C10.9275 9.4293 10.9075 9.30413 10.8665 9.18713C10.8254 9.07012 10.7556 8.96122 10.6571 8.86042L2.30067 0.367416C2.06923 0.132199 1.77852 0.0131725 1.42853 0.0103359C1.07854 0.00749936 0.777542 0.130064 0.525524 0.37803C0.273506 0.625995 0.146146 0.916639 0.143445 1.24996C0.140743 1.58328 0.263376 1.87595 0.511341 2.12797L7.80153 9.5373L0.392205 16.8275C0.156989 17.0589 0.0379941 17.3456 0.0352224 17.6876C0.0324507 18.0296 0.15505 18.3263 0.403021 18.5776C0.650987 18.8297 0.941631 18.957 1.27495 18.9597C1.60828 18.9624 1.90095 18.8398 2.15296 18.5918Z" fill="#F20202"/>
</svg>
