<svg width="29" height="36" viewBox="0 0 29 36" fill="none" xmlns="http://www.w3.org/2000/svg">
<g clip-path="url(#clip0_7_8)">
<path fill-rule="evenodd" clip-rule="evenodd" d="M2.78632 0C2.78632 0 5.1418 13.8953 12 25C12 25 4.03984 24.6556 1.25232 17.299C-1.30959 10.5384 0.49261 3.62432 2.78632 0Z" fill="white"/>
<path fill-rule="evenodd" clip-rule="evenodd" d="M18.4057 28C21.3346 31.3456 24.8376 34.1831 29 35.9263C29 35.9263 23.4193 36.4834 20.0524 34.5336C16.6855 32.5839 13.1803 29.2971 11.0126 29.0743C8.84486 28.8514 7.57744 28.7066 7 28H18.4057Z" fill="white"/>
<path fill-rule="evenodd" clip-rule="evenodd" d="M23 28C21.7963 25.0984 16 25 16 25C16 25 17.5705 26.7661 18.5848 27.7722C18.5848 27.7722 22.1227 27.6707 23 28Z" fill="white"/>
</g>
<defs>
<clipPath id="clip0_7_8">
<rect width="29" height="36" fill="white"/>
</clipPath>
</defs>
</svg>
