<svg width="173" height="40" viewBox="0 0 173 40" fill="none" xmlns="http://www.w3.org/2000/svg">
<g clip-path="url(#clip0_1_2)">
<path fill-rule="evenodd" clip-rule="evenodd" d="M141.257 0.00499725C141.257 0.00499725 144.792 15.108 155.084 27.178C155.084 27.178 143.138 26.804 138.954 18.808C135.11 11.46 137.814 3.944 141.257 0.00499725ZM158.978 31.26C162.882 34.9 167.55 37.987 173.098 39.884C173.098 39.884 165.66 40.49 161.173 38.369C156.685 36.248 152.013 32.672 149.125 32.429C146.235 32.187 144.547 32.029 143.777 31.261L158.978 31.26Z" fill="white"/>
<path fill-rule="evenodd" clip-rule="evenodd" d="M165.63 31.596C163.816 27.323 155.084 27.178 155.084 27.178C155.084 27.178 157.45 29.779 158.978 31.261C158.978 31.261 164.308 31.111 165.629 31.596M21.72 12.611H27.047L31.882 25.136L36.554 12.611H42.045L33.655 32.167H31.882C31.042 32.167 29.833 32.086 28.604 28.854C27.374 25.621 21.72 12.611 21.72 12.611ZM43.684 32.167H48.93V12.61H43.684V32.167ZM49.34 7.116C49.34 8.768 47.982 10.106 46.307 10.106C44.632 10.106 43.274 8.768 43.274 7.116C43.274 5.465 44.632 4.126 46.307 4.126C47.982 4.126 49.34 5.465 49.34 7.116ZM90.565 32.167H85.155V18.833C85.155 18.833 85.155 16.005 82.123 16.652C79.656 17.177 77.861 18.672 77.861 18.672V32.167H72.452V12.61C72.452 12.61 77.206 11.156 77.615 14.469C77.615 14.469 80.648 11.964 84.418 11.964C88.188 11.964 90.565 14.631 90.565 17.378V32.167ZM63.682 27.197C63.682 27.197 62.289 28.207 60.076 28.207C57.863 28.207 57.208 26.793 57.208 25.702C57.208 24.449 57.945 22.954 63.682 23.278V27.197ZM68.846 28.793V18.672C68.846 16.409 67.903 11.843 61.469 11.884C55.322 11.922 53.028 14.47 53.028 14.47L55.077 17.702C55.077 17.702 56.06 16.086 59.994 16.086C63.928 16.086 63.436 19.48 63.436 19.48C52.618 19.318 52.044 23.763 52.044 26.43C52.044 29.096 54.094 32.328 58.109 32.328C62.125 32.328 64.174 30.389 64.174 30.389C64.338 32.086 66.305 32.167 66.305 32.167H69.419C68.928 32.167 68.846 28.793 68.846 28.793ZM123.059 27.197C123.059 27.197 121.666 28.207 119.453 28.207C117.24 28.207 116.584 26.793 116.584 25.702C116.584 24.449 117.321 22.954 123.059 23.278V27.197ZM128.222 28.793V18.672C128.222 16.409 127.28 11.843 120.846 11.884C114.699 11.922 112.404 14.47 112.404 14.47L114.454 17.702C114.454 17.702 115.437 16.086 119.371 16.086C123.305 16.086 122.813 19.48 122.813 19.48C111.994 19.318 111.42 23.763 111.42 26.43C111.42 29.096 113.47 32.328 117.486 32.328C121.502 32.328 123.551 30.389 123.551 30.389C123.714 32.086 125.681 32.167 125.681 32.167H128.796C128.304 32.167 128.222 28.793 128.222 28.793ZM109.006 17.864C109.006 17.864 107.243 16.086 103.76 16.086C99.908 16.086 98.433 19.803 98.433 22.955C98.433 26.106 100.81 28.288 104.253 28.288C106.833 28.288 108.842 26.753 108.842 26.753L110.235 30.551C110.235 30.551 107.325 32.571 102.695 32.571C99.499 32.571 93.269 30.471 93.269 22.874C93.269 15.278 98.351 12 103.269 12.046C107.653 12.086 109.374 13.581 109.374 13.581L109.006 17.864ZM9.555 20.952L12.525 12.777L15.495 20.952H9.555ZM14.532 5.015H10.516L0.026001 32.167H5.517L7.73 25.298H17.237L20.024 32.167H25.515L14.532 5.015Z" fill="white"/>
</g>
<defs>
<clipPath id="clip0_1_2">
<rect width="173" height="40" fill="white"/>
</clipPath>
</defs>
</svg>
