<svg width="16" height="16" viewBox="0 0 16 16" fill="none" xmlns="http://www.w3.org/2000/svg">
<circle cx="8" cy="8" r="8" fill="#303E5B"/>
<path d="M9.28761 3.8876C9.31548 3.85966 9.34858 3.8375 9.38503 3.82237C9.42148 3.80725 9.46055 3.79947 9.50001 3.79947C9.53947 3.79947 9.57854 3.80725 9.61499 3.82237C9.65144 3.8375 9.68454 3.85966 9.71241 3.8876L11.5124 5.6876C11.5403 5.71547 11.5625 5.74857 11.5776 5.78502C11.5928 5.82147 11.6005 5.86054 11.6005 5.9C11.6005 5.93946 11.5928 5.97853 11.5776 6.01498C11.5625 6.05143 11.5403 6.08453 11.5124 6.1124L9.71241 7.9124C9.68452 7.94029 9.6514 7.96242 9.61496 7.97752C9.57852 7.99261 9.53946 8.00038 9.50001 8.00038C9.46056 8.00038 9.4215 7.99261 9.38506 7.97752C9.34862 7.96242 9.3155 7.94029 9.28761 7.9124C9.25972 7.88451 9.23759 7.8514 9.2225 7.81495C9.2074 7.77851 9.19963 7.73945 9.19963 7.7C9.19963 7.66056 9.2074 7.62149 9.2225 7.58505C9.23759 7.54861 9.25972 7.51549 9.28761 7.4876L10.5758 6.2H4.70001C4.62045 6.2 4.54414 6.16839 4.48788 6.11213C4.43162 6.05587 4.40001 5.97957 4.40001 5.9C4.40001 5.82044 4.43162 5.74413 4.48788 5.68787C4.54414 5.63161 4.62045 5.6 4.70001 5.6H10.5758L9.28761 4.3124C9.25967 4.28453 9.23751 4.25143 9.22238 4.21498C9.20726 4.17853 9.19947 4.13946 9.19947 4.1C9.19947 4.06054 9.20726 4.02147 9.22238 3.98502C9.23751 3.94857 9.25967 3.91547 9.28761 3.8876ZM6.71241 8.0876C6.74035 8.11547 6.76252 8.14857 6.77764 8.18502C6.79276 8.22147 6.80055 8.26054 6.80055 8.3C6.80055 8.33946 6.79276 8.37853 6.77764 8.41498C6.76252 8.45143 6.74035 8.48453 6.71241 8.5124L5.42421 9.8H11.3C11.3796 9.8 11.4559 9.83161 11.5121 9.88787C11.5684 9.94413 11.6 10.0204 11.6 10.1C11.6 10.1796 11.5684 10.2559 11.5121 10.3121C11.4559 10.3684 11.3796 10.4 11.3 10.4H5.42421L6.71241 11.6876C6.76874 11.7439 6.80039 11.8203 6.80039 11.9C6.80039 11.9797 6.76874 12.0561 6.71241 12.1124C6.65608 12.1687 6.57968 12.2004 6.50001 12.2004C6.42035 12.2004 6.34394 12.1687 6.28761 12.1124L4.48761 10.3124C4.45967 10.2845 4.43751 10.2514 4.42238 10.215C4.40726 10.1785 4.39948 10.1395 4.39948 10.1C4.39948 10.0605 4.40726 10.0215 4.42238 9.98502C4.43751 9.94857 4.45967 9.91547 4.48761 9.8876L6.28761 8.0876C6.31548 8.05966 6.34858 8.0375 6.38503 8.02237C6.42148 8.00725 6.46055 7.99947 6.50001 7.99947C6.53947 7.99947 6.57854 8.00725 6.61499 8.02237C6.65144 8.0375 6.68454 8.05966 6.71241 8.0876Z" fill="white"/>
</svg>
